<?xml version="1.0" encoding="UTF-8"?>
<svg id="Capa_3" data-name="Capa 3" xmlns="http://www.w3.org/2000/svg" xmlns:xlink="http://www.w3.org/1999/xlink" viewBox="0 0 263.67 238.39">
  <defs>
    <style>
      .cls-1 {
        fill: url(#linear-gradient-8);
      }

      .cls-1, .cls-2, .cls-3, .cls-4, .cls-5, .cls-6, .cls-7, .cls-8, .cls-9, .cls-10, .cls-11, .cls-12, .cls-13, .cls-14, .cls-15, .cls-16, .cls-17, .cls-18, .cls-19, .cls-20, .cls-21, .cls-22, .cls-23, .cls-24, .cls-25, .cls-26, .cls-27 {
        stroke-miterlimit: 10;
      }

      .cls-1, .cls-2, .cls-3, .cls-4, .cls-5, .cls-6, .cls-7, .cls-8, .cls-9, .cls-10, .cls-11, .cls-12, .cls-13, .cls-14, .cls-15, .cls-16, .cls-17, .cls-18, .cls-19, .cls-20, .cls-21, .cls-22, .cls-24, .cls-25, .cls-26, .cls-27 {
        stroke-width: .25px;
      }

      .cls-1, .cls-2, .cls-3, .cls-5, .cls-6, .cls-7, .cls-8, .cls-9, .cls-10, .cls-11, .cls-12, .cls-14, .cls-15, .cls-16, .cls-18, .cls-19, .cls-21, .cls-22, .cls-24, .cls-25, .cls-26 {
        stroke: #1d1d1b;
      }

      .cls-28 {
        fill: url(#linear-gradient-38);
      }

      .cls-28, .cls-29, .cls-30, .cls-31, .cls-32, .cls-33, .cls-34, .cls-35, .cls-36, .cls-37, .cls-38, .cls-39, .cls-40, .cls-41, .cls-42, .cls-43, .cls-44, .cls-45, .cls-46 {
        stroke-width: 0px;
      }

      .cls-2 {
        fill: url(#linear-gradient-4);
      }

      .cls-3 {
        fill: url(#linear-gradient-16);
      }

      .cls-4 {
        fill: url(#Degradado_sin_nombre_111-3);
      }

      .cls-4, .cls-13, .cls-17, .cls-20, .cls-27 {
        stroke: #000;
      }

      .cls-5, .cls-23 {
        fill: none;
      }

      .cls-29 {
        fill: url(#linear-gradient-33);
      }

      .cls-30 {
        fill: url(#Degradado_sin_nombre_102);
      }

      .cls-31 {
        fill: url(#linear-gradient);
      }

      .cls-6 {
        fill: url(#linear-gradient-19);
      }

      .cls-32 {
        fill: url(#linear-gradient-21);
      }

      .cls-7 {
        fill: url(#linear-gradient-20);
      }

      .cls-8 {
        fill: url(#linear-gradient-27);
      }

      .cls-9 {
        fill: url(#linear-gradient-7);
      }

      .cls-10 {
        fill: url(#linear-gradient-6);
      }

      .cls-11 {
        fill: url(#linear-gradient-28);
      }

      .cls-12 {
        fill: url(#linear-gradient-14);
      }

      .cls-33 {
        fill: url(#linear-gradient-31);
      }

      .cls-34 {
        fill: url(#linear-gradient-34);
      }

      .cls-13 {
        fill: url(#Degradado_sin_nombre_111-2);
      }

      .cls-14 {
        fill: url(#linear-gradient-11);
      }

      .cls-35 {
        fill: url(#linear-gradient-23);
      }

      .cls-36 {
        fill: url(#linear-gradient-25);
      }

      .cls-37 {
        fill: url(#linear-gradient-22);
      }

      .cls-38 {
        fill: url(#linear-gradient-35);
      }

      .cls-15 {
        fill: url(#linear-gradient-10);
      }

      .cls-39 {
        fill: url(#linear-gradient-32);
      }

      .cls-16 {
        fill: url(#linear-gradient-26);
      }

      .cls-40 {
        fill: url(#linear-gradient-2);
      }

      .cls-17 {
        fill: url(#Degradado_sin_nombre_111-4);
      }

      .cls-18 {
        fill: url(#linear-gradient-17);
      }

      .cls-19 {
        fill: url(#linear-gradient-5);
      }

      .cls-41 {
        fill: url(#linear-gradient-3);
      }

      .cls-20 {
        fill: url(#Degradado_sin_nombre_111-5);
      }

      .cls-21 {
        fill: url(#linear-gradient-18);
      }

      .cls-42 {
        fill: url(#linear-gradient-36);
      }

      .cls-22 {
        fill: url(#linear-gradient-15);
      }

      .cls-23 {
        stroke: url(#Degradado_sin_nombre_112);
      }

      .cls-43 {
        fill: url(#linear-gradient-24);
      }

      .cls-24 {
        fill: url(#linear-gradient-12);
      }

      .cls-44 {
        fill: url(#linear-gradient-30);
      }

      .cls-25 {
        fill: url(#linear-gradient-13);
      }

      .cls-26 {
        fill: url(#linear-gradient-9);
      }

      .cls-45 {
        fill: url(#linear-gradient-29);
      }

      .cls-27 {
        fill: url(#Degradado_sin_nombre_111);
      }

      .cls-46 {
        fill: url(#linear-gradient-37);
      }
    </style>
    <linearGradient id="linear-gradient" x1="69.6" y1="64.13" x2="82.23" y2="64.13" gradientUnits="userSpaceOnUse">
      <stop offset="0" stop-color="#8e7747"/>
      <stop offset="0" stop-color="#806c40"/>
      <stop offset=".23" stop-color="#b09451"/>
      <stop offset=".41" stop-color="#fcc44b"/>
      <stop offset=".59" stop-color="#efe078"/>
      <stop offset=".77" stop-color="#a36914"/>
      <stop offset="1" stop-color="#806c40"/>
    </linearGradient>
    <linearGradient id="linear-gradient-2" x1="57.98" y1="64.26" x2="69.6" y2="64.26" xlink:href="#linear-gradient"/>
    <linearGradient id="linear-gradient-3" x1="57.98" y1="63.67" x2="69.6" y2="63.67" gradientTransform="translate(-8.15 18.82) rotate(-14.56)" xlink:href="#linear-gradient"/>
    <linearGradient id="linear-gradient-4" x1="56.36" y1="87.68" x2="83.93" y2="87.68" xlink:href="#linear-gradient"/>
    <linearGradient id="linear-gradient-5" x1="109.64" y1="123.45" x2="116.59" y2="123.45" xlink:href="#linear-gradient"/>
    <linearGradient id="linear-gradient-6" x1="150.74" y1="123.45" x2="157.69" y2="123.45" xlink:href="#linear-gradient"/>
    <linearGradient id="linear-gradient-7" x1="123.24" y1="106.01" x2="130.2" y2="106.01" xlink:href="#linear-gradient"/>
    <linearGradient id="linear-gradient-8" x1="137.24" y1="106.01" x2="144.2" y2="106.01" xlink:href="#linear-gradient"/>
    <linearGradient id="linear-gradient-9" x1="97.92" y1="40.23" x2="99.06" y2="40.23" xlink:href="#linear-gradient"/>
    <linearGradient id="linear-gradient-10" x1="97.93" y1="50.15" x2="113.78" y2="50.15" xlink:href="#linear-gradient"/>
    <linearGradient id="linear-gradient-11" x1="100.21" y1="40.4" x2="111.48" y2="40.4" xlink:href="#linear-gradient"/>
    <linearGradient id="linear-gradient-12" x1="96.77" y1="37.57" x2="113.87" y2="37.57" xlink:href="#linear-gradient"/>
    <linearGradient id="linear-gradient-13" x1="153.92" y1="40.23" x2="155.06" y2="40.23" xlink:href="#linear-gradient"/>
    <linearGradient id="linear-gradient-14" x1="153.93" y1="50.15" x2="169.78" y2="50.15" xlink:href="#linear-gradient"/>
    <linearGradient id="linear-gradient-15" x1="156.21" y1="40.4" x2="167.48" y2="40.4" xlink:href="#linear-gradient"/>
    <linearGradient id="linear-gradient-16" x1="152.77" y1="37.57" x2="169.87" y2="37.57" xlink:href="#linear-gradient"/>
    <linearGradient id="linear-gradient-17" x1="125.5" y1="5.92" x2="126.64" y2="5.92" xlink:href="#linear-gradient"/>
    <linearGradient id="linear-gradient-18" x1="125.51" y1="15.84" x2="141.36" y2="15.84" xlink:href="#linear-gradient"/>
    <linearGradient id="linear-gradient-19" x1="127.79" y1="6.08" x2="139.06" y2="6.08" xlink:href="#linear-gradient"/>
    <linearGradient id="linear-gradient-20" x1="124.36" y1="3.26" x2="141.45" y2="3.26" xlink:href="#linear-gradient"/>
    <linearGradient id="linear-gradient-21" x1="113.84" y1="153.94" x2="153.87" y2="153.94" xlink:href="#linear-gradient"/>
    <linearGradient id="linear-gradient-22" x1="116.74" y1="158.98" x2="152.13" y2="158.98" xlink:href="#linear-gradient"/>
    <linearGradient id="linear-gradient-23" x1="197.14" y1="63.47" x2="209.78" y2="63.47" xlink:href="#linear-gradient"/>
    <linearGradient id="linear-gradient-24" x1="185.53" y1="63.6" x2="197.14" y2="63.6" xlink:href="#linear-gradient"/>
    <linearGradient id="linear-gradient-25" x1="197.15" y1="63.61" x2="209.78" y2="63.61" gradientTransform="translate(18.02 -51.21) rotate(15.48) skewX(.02)" xlink:href="#linear-gradient"/>
    <linearGradient id="linear-gradient-26" x1="183.9" y1="87.02" x2="211.47" y2="87.02" xlink:href="#linear-gradient"/>
    <linearGradient id="linear-gradient-27" x1="86.51" y1="163.21" x2="181.6" y2="163.21" xlink:href="#linear-gradient"/>
    <linearGradient id="linear-gradient-28" x1="59.45" y1="63.11" x2="208.27" y2="63.11" xlink:href="#linear-gradient"/>
    <linearGradient id="Degradado_sin_nombre_102" data-name="Degradado sin nombre 102" x1="0" y1="200.91" x2="263.67" y2="200.91" gradientUnits="userSpaceOnUse">
      <stop offset=".16" stop-color="#8e7747"/>
      <stop offset=".22" stop-color="#806c40"/>
      <stop offset=".34" stop-color="#b09451"/>
      <stop offset=".39" stop-color="#efe078"/>
      <stop offset=".46" stop-color="#fcc44b"/>
      <stop offset=".56" stop-color="#a36914"/>
      <stop offset=".68" stop-color="#806c40"/>
      <stop offset=".76" stop-color="#886c37"/>
    </linearGradient>
    <linearGradient id="linear-gradient-29" x1="0" y1="196.81" x2="26.87" y2="196.81" gradientUnits="userSpaceOnUse">
      <stop offset="0" stop-color="#fcf7cd"/>
      <stop offset="0" stop-color="#a6802f"/>
      <stop offset=".23" stop-color="#ba9443"/>
      <stop offset=".41" stop-color="#fcf6c3"/>
      <stop offset=".59" stop-color="#fff0a9"/>
      <stop offset=".77" stop-color="#dfbe7a"/>
      <stop offset="1" stop-color="#fcf8d0"/>
    </linearGradient>
    <linearGradient id="linear-gradient-30" x1="23.62" x2="55.92" xlink:href="#linear-gradient-29"/>
    <linearGradient id="linear-gradient-31" x1="60.09" x2="78.22" xlink:href="#linear-gradient-29"/>
    <linearGradient id="linear-gradient-32" x1="92.19" x2="112.36" xlink:href="#linear-gradient-29"/>
    <linearGradient id="linear-gradient-33" x1="115.62" x2="137.63" xlink:href="#linear-gradient-29"/>
    <linearGradient id="linear-gradient-34" x1="139.11" x2="167.5" xlink:href="#linear-gradient-29"/>
    <linearGradient id="linear-gradient-35" x1="174.74" x2="197.6" xlink:href="#linear-gradient-29"/>
    <linearGradient id="linear-gradient-36" x1="199.96" y1="200" x2="222.39" y2="200" xlink:href="#linear-gradient-29"/>
    <linearGradient id="linear-gradient-37" x1="225.12" y1="199.76" x2="239.44" y2="199.76" xlink:href="#linear-gradient-29"/>
    <linearGradient id="linear-gradient-38" x1="240.91" y1="204.1" x2="263.67" y2="204.1" xlink:href="#linear-gradient-29"/>
    <linearGradient id="Degradado_sin_nombre_112" data-name="Degradado sin nombre 112" x1="0" y1="200.91" x2="263.67" y2="200.91" gradientUnits="userSpaceOnUse">
      <stop offset="0" stop-color="#8e7747"/>
      <stop offset=".17" stop-color="#806c40"/>
      <stop offset=".34" stop-color="#b09451"/>
      <stop offset=".56" stop-color="#efe078"/>
      <stop offset=".67" stop-color="#a36914"/>
      <stop offset=".77" stop-color="#fcc44b"/>
      <stop offset=".85" stop-color="#806c40"/>
    </linearGradient>
    <linearGradient id="Degradado_sin_nombre_111" data-name="Degradado sin nombre 111" x1="55.71" y1="228.93" x2="67.61" y2="228.93" gradientUnits="userSpaceOnUse">
      <stop offset="0" stop-color="#8e7747"/>
      <stop offset=".23" stop-color="#fcc44b"/>
      <stop offset=".45" stop-color="#b09451"/>
      <stop offset=".7" stop-color="#efe078"/>
      <stop offset=".9" stop-color="#806c40"/>
      <stop offset="1" stop-color="#a36914"/>
      <stop offset="1" stop-color="#806c40"/>
    </linearGradient>
    <linearGradient id="Degradado_sin_nombre_111-2" data-name="Degradado sin nombre 111" x1="87.88" y1="228.94" x2="104.56" y2="228.94" xlink:href="#Degradado_sin_nombre_111"/>
    <linearGradient id="Degradado_sin_nombre_111-3" data-name="Degradado sin nombre 111" x1="130.43" y1="228.73" x2="145.47" y2="228.73" xlink:href="#Degradado_sin_nombre_111"/>
    <linearGradient id="Degradado_sin_nombre_111-4" data-name="Degradado sin nombre 111" x1="171.32" y1="228.77" x2="177.25" y2="228.77" xlink:href="#Degradado_sin_nombre_111"/>
    <linearGradient id="Degradado_sin_nombre_111-5" data-name="Degradado sin nombre 111" x1="196.98" y1="228.77" x2="208.43" y2="228.77" xlink:href="#Degradado_sin_nombre_111"/>
  </defs>
  <g>
    <path class="cls-31" d="M69.6,41.31c.53,1.93,12.1,43.71,12.63,45.64"/>
    <path class="cls-40" d="M69.6,41.9c-.4,1.53-11.59,44.64-11.61,44.72"/>
    <path class="cls-41" d="M69.6,41.31c0,1.58,0,46.12,0,46.21"/>
    <path class="cls-2" d="M60.2,85.62c-4.27-.5-5.44,2.75-1.13,4.05,2.53.27,18.28.02,21.21.1,2.17.09,5.43-2.44,2.45-3.95-1.04-.36-2.11-.15-3-.21-1.07,0-2.85,0-5.75,0-3.89,0-10.48,0-13.67,0h-.11Z"/>
  </g>
  <path class="cls-19" d="M116.58,143.5c.13,2.22-1.63,4-3.54,3.97-1.61-.02-3.1-1.32-3.4-3.12v-24.38l6.95-20.55v44.08Z"/>
  <path class="cls-10" d="M150.75,143.5c-.13,2.22,1.63,4,3.54,3.97,1.61-.02,3.1-1.32,3.4-3.12v-24.38s-6.95-20.55-6.95-20.55v44.08Z"/>
  <path class="cls-9" d="M130.18,143.5c.13,2.22-1.63,4-3.54,3.97-1.61-.02-3.1-1.32-3.4-3.12v-67.75l6.96-12.05v78.94Z"/>
  <path class="cls-1" d="M137.25,143.5c-.13,2.22,1.63,4,3.54,3.97,1.61-.02,3.1-1.32,3.4-3.12v-67.75s-6.96-12.05-6.96-12.05v78.94Z"/>
  <g>
    <path class="cls-26" d="M99.06,37.02v5.86c-.03.29-.24.51-.5.54-.3.04-.61-.2-.64-.54,0-1.95,0-3.91,0-5.86h1.14Z"/>
    <g>
      <path class="cls-15" d="M100.55,44.05c-3.43,1.78-3.27,8.08-.84,10.6,2.17,2.43,7.33,2.46,10.33,1.13,3.82-1.8,5.23-8.98,1.7-11.64-1.35-.74-3.46-.41-5.17-.48-1.9.09-4.19-.25-5.86.32l-.16.07Z"/>
      <g>
        <path class="cls-14" d="M100.28,38.86c-.12.58-.06,2.06-.05,2.68.04.4.03.63.39.69,1.36.03,8.73-.04,10.34-.06.75-.05.43-1.04.51-1.7-.08-.69.21-1.6-.32-1.89-.87-.08-5.55.02-8.44.02-1.33.08-2.07-.15-2.39.18l-.03.07Z"/>
        <path class="cls-24" d="M96.78,37.26c2.12-.85,5.31-1.66,7.63-2.44,1.61-.51,1.53-.54,3.12.05,1.89.78,4.7,1.48,6.34,2.4-1.44.98-4.06,1.81-5.77,2.67-1.48.64-2.02,1.13-3.45.4-2.41-.98-5.67-2.02-7.87-3.06v-.03Z"/>
      </g>
    </g>
  </g>
  <g>
    <path class="cls-25" d="M155.06,37.02v5.86c-.03.29-.24.51-.5.54-.3.04-.61-.2-.64-.54,0-1.95,0-3.91,0-5.86h1.14Z"/>
    <g>
      <path class="cls-12" d="M156.55,44.05c-3.43,1.78-3.27,8.08-.84,10.6,2.17,2.43,7.33,2.46,10.33,1.13,3.82-1.8,5.23-8.98,1.7-11.64-1.35-.74-3.46-.41-5.17-.48-1.9.09-4.19-.25-5.86.32l-.16.07Z"/>
      <g>
        <path class="cls-22" d="M156.28,38.86c-.12.58-.06,2.06-.05,2.68.04.4.03.63.39.69,1.36.03,8.73-.04,10.34-.06.75-.05.43-1.04.51-1.7-.08-.69.21-1.6-.32-1.89-.87-.08-5.55.02-8.44.02-1.33.08-2.07-.15-2.39.18l-.03.07Z"/>
        <path class="cls-3" d="M152.78,37.26c2.12-.85,5.31-1.66,7.63-2.44,1.61-.51,1.53-.54,3.12.05,1.89.78,4.7,1.48,6.34,2.4-1.44.98-4.06,1.81-5.77,2.67-1.48.64-2.02,1.13-3.45.4-2.41-.98-5.67-2.02-7.87-3.06v-.03Z"/>
      </g>
    </g>
  </g>
  <g>
    <path class="cls-18" d="M126.64,2.71v5.86c-.03.29-.24.51-.5.54-.3.04-.61-.2-.64-.54,0-1.95,0-3.91,0-5.86h1.14Z"/>
    <g>
      <path class="cls-21" d="M128.14,9.74c-3.43,1.78-3.27,8.08-.84,10.6,2.17,2.43,7.33,2.46,10.33,1.13,3.82-1.8,5.23-8.98,1.7-11.64-1.35-.74-3.46-.41-5.17-.48-1.9.09-4.19-.25-5.86.32l-.16.07Z"/>
      <g>
        <path class="cls-6" d="M127.86,4.55c-.12.58-.06,2.06-.05,2.68.04.4.03.63.39.69,1.36.03,8.73-.04,10.34-.06.75-.05.43-1.04.51-1.7-.08-.69.21-1.6-.32-1.89-.87-.08-5.55.02-8.44.02-1.33.08-2.07-.15-2.39.18l-.03.07Z"/>
        <path class="cls-7" d="M124.36,2.95c2.12-.85,5.31-1.66,7.63-2.44,1.61-.51,1.53-.54,3.12.05,1.89.78,4.7,1.48,6.34,2.4-1.44.98-4.06,1.81-5.77,2.67-1.48.64-2.02,1.13-3.45.4-2.41-.98-5.67-2.02-7.87-3.06v-.03Z"/>
      </g>
    </g>
  </g>
  <path class="cls-32" d="M114.98,152.19c-.66.3-1.1.94-1.13,1.65-.04.78.41,1.51,1.13,1.84h37.42c.96-.22,1.58-1.11,1.46-1.98-.09-.73-.68-1.35-1.46-1.51h-37.42Z"/>
  <path class="cls-37" d="M117.75,157.23c-.58.3-.97.94-1,1.65-.03.78.36,1.51,1,1.84h33.08c.85-.22,1.39-1.11,1.29-1.98-.08-.73-.6-1.35-1.29-1.51h-33.08Z"/>
  <g>
    <path class="cls-35" d="M197.14,40.65c.53,1.93,12.1,43.71,12.63,45.64"/>
    <path class="cls-43" d="M197.14,41.23c-.4,1.53-11.59,44.64-11.61,44.72"/>
    <path class="cls-36" d="M197.14,40.76c0,2,0,45.39,0,47.4"/>
    <path class="cls-16" d="M187.74,84.96c-4.27-.5-5.44,2.75-1.13,4.05,2.53.27,18.28.02,21.21.1,2.17.09,5.43-2.44,2.45-3.95-1.04-.36-2.11-.15-3-.21-1.07,0-2.85,0-5.75,0-3.89,0-10.48,0-13.67,0h-.11Z"/>
  </g>
  <g>
    <path class="cls-8" d="M181.46,162.16c-1.72-9.84-15.63-12.46-23.39-7.52-1.62,1.1-2.58,2.82-3.41,4.6-2.28,6.32-9.81,4.44-15.07,4.68-4.51-.03-9.77-.06-14.22-.09-3.21-.15-7.01.49-9.69-1.57-2.44-2.05-2.93-6.35-6.02-8.05-7.46-4.4-21.08-2.02-22.96,7.49-1.75,9.09,9.11,13.06,16.47,12.41,7.57,0,14.81-.02,22.07.03,8.67.04,16.36.13,24.41.14,7.19-.17,14.45.42,21.25-.37,5.58-.73,11.73-5.57,10.57-11.75ZM173.3,167.59c-4.28,3.43-10.24,2.43-15.37,2.63-9.93,0-21.25.06-31.44.1-6.91.03-12.62.04-19.95.03-2.9-.03-5.88.02-8.67-.89-3.84-1.06-7.05-5.34-5.16-9.13,1.45-3.35,6-5.36,9.71-4.63,1.92.3,3.93,1.88,3.82,3.76-.04,1.12-.79,2.64-2.06,2.59-1.25-.11-2.12-2.43-3.84-2.74-3.17-.51-5.63,3.65-3.34,6.1,1.89,2.26,5.71,2.5,8.6,2.56,12.65.05,24.6-.07,37.12-.1,8.25-.27,15.69.44,23.76-.37,3.51-.37,7.43-3.89,4.51-7.1-.95-.99-2.47-1.47-3.52-1.12-1.5.45-2.47,2.36-3.57,2.6-1.44.3-2.46-1.88-2.05-3.23.47-1.96,2.68-3.06,4.61-3.19,7.33-.58,12.9,7.14,6.84,12.12Z"/>
    <path class="cls-5" d="M173.3,167.59c-4.28,3.43-10.24,2.43-15.37,2.63-9.93,0-21.25.06-31.44.1-6.91.03-12.62.04-19.95.03-2.9-.03-5.88.02-8.67-.89-3.84-1.06-7.05-5.34-5.16-9.13,1.45-3.35,6-5.36,9.71-4.63,1.92.3,3.93,1.88,3.82,3.76-.04,1.12-.79,2.64-2.06,2.59-1.25-.11-2.12-2.43-3.84-2.74-3.17-.51-5.63,3.65-3.34,6.1,1.89,2.26,5.71,2.5,8.6,2.56,12.65.05,24.6-.07,37.12-.1,8.25-.27,15.69.44,23.76-.37,3.51-.37,7.43-3.89,4.51-7.1-.95-.99-2.47-1.47-3.52-1.12-1.5.45-2.47,2.36-3.57,2.6-1.44.3-2.46-1.88-2.05-3.23.47-1.96,2.68-3.06,4.61-3.19,7.33-.58,12.9,7.14,6.84,12.12Z"/>
  </g>
  <path class="cls-11" d="M106.73,70.87c-.21-.04-.41-.3-.62-.64-.25-.39-.53-.84-.8-1.26-4.93-7.67-11.05-15.24-18.31-21.53-7.84-6.78-17.01-11.9-26.75-12.87-.48-.04-.8,0-.8.11-.02.23,1.04.75,1.76,1.2.08.05.24.14.32.19,2.18,1.33,4.44,2.88,6.54,4.53,3.3,2.58,6.42,5.51,9.25,8.61,5.25,5.75,9.7,12.25,13.57,19.16,7.36,13.13,12.59,27.69,17,41.05.14.41.28.75.42.84.16.12.32-.09.47-.51.06-.15.11-.33.17-.52,1.24-4.24,2.49-8.61,3.86-13.02,4.54-14.6,10.28-29.7,20.03-41.64.34-.39.68-.66,1.01-.65.33,0,.66.28.98.69,1.32,1.74,2.58,3.59,3.77,5.42,4.26,6.58,7.89,13.83,10.99,21.29,3.83,9.23,6.87,18.8,9.48,28.04.07.25.14.5.21.72.15.43.31.66.48.56.15-.08.31-.4.46-.81,2.31-6.4,4.6-13.17,7.14-19.94,2.78-7.43,5.85-14.85,9.56-21.89,7.08-13.45,16.47-25.4,30.45-32.71.49-.26.87-.48.89-.62.04-.14-.27-.18-.75-.16-4.65.3-9.23,1.66-13.56,3.72-4.73,2.26-9.18,5.36-13.31,8.99-7.9,6.93-14.48,15.74-18.87,23.71-.26.45-.53.73-.82.64-.19-.05-.4-.26-.61-.55-1.27-1.92-2.58-4.01-3.89-6-4.19-6.41-8.68-13.04-13.07-19.3-.15-.21-.29-.43-.41-.64-.24-.43-.36-.86-.29-1.28.04-.26.14-.53.29-.79,1.07-1.74,2.4-3.49,3.85-5.19,0,0,5.92-5.98,8.34-8,.17-.14.31-.26.31-.26.16-.13.21-.18.31-.26,0,0,.18-.15.41-.35,3.46-2.92,3.8-3.61,6.17-5.67,4.81-4.16,7.21-6.25,7.22-6.25,0,0,.26-.26.54-.62.26-.34.36-.6.23-.73-.19-.2-.7-.16-.93-.12-3.39.53-4.55.94-4.55.94-2.02.71-3.02,1.07-3.29,1.19-8.97,3.86-26.09,18.27-26.09,18.27-.22.15-.43.31-.65.43-.32.18-.64.3-.95.3-.41.02-.8-.17-1.2-.45-1.04-.76-2.14-1.61-3.22-2.41-1.58-1.19-3.18-2.39-4.78-3.55-2.46-1.79-4.92-3.51-7.36-5.03-.38-.24-.77-.48-1.17-.72-5.16-3.12-10.54-5.52-16.61-6.7-.45-.08-.79-.1-.9-.01-.13.1.05.35.4.66,2.17,1.84,4.5,3.72,6.75,5.57,2.24,1.84,4.49,3.71,6.58,5.57,4.11,3.67,7.91,7.53,11.71,12.6.13.17.26.35.37.53.23.35.4.71.45,1.05.08.46-.05.9-.28,1.31-.44.72-.93,1.38-1.41,2.1-.71,1.06-1.43,2.11-2.15,3.16-1.42,2.07-3.81,5.62-6.06,9.07-1.29,1.98-2.62,3.95-3.9,5.94-.08.12-.66.96-1.84,2.64-.42.6-.82,1.17-1.47,1.85-.42.44-.81.77-1.08,1Z"/>
  <g>
    <g>
      <path class="cls-30" d="M7.79,209.47c.12-1,.27-2.7.45-5.1.17-2.4.26-4.09.26-5.08l-8.5-15.14c1.87.02,3.41.04,4.62.04s2.55-.01,4.17-.04c.49,1.24,1.17,2.71,2.01,4.42.85,1.71,1.54,3.24,2.07,4.59,1.42-2.51,2.56-4.47,3.43-5.87.87-1.4,1.48-2.45,1.85-3.14,1.57.02,3.08.04,4.53.04.77,0,2.16-.01,4.18-.04l-8.15,12c-1.62,2.4-2.43,3.66-2.43,3.77l-.02.19v.19l-.02.19-.13,2.82c-.09,1.87-.15,3.93-.2,6.18-1.74-.02-3.09-.04-4.05-.04s-2.34.01-4.08.04Z"/>
      <path class="cls-30" d="M23.62,209.47l1.54-2.67,9.6-18.07,1.02-2.02c.3-.59.71-1.45,1.24-2.56,2.18.02,3.77.04,4.77.04,1.74,0,3.36-.01,4.84-.04l2.71,7.74,5.51,14.88,1.08,2.71c-2.14-.02-3.44-.04-3.9-.04-1.04,0-2.57.01-4.59.04-.54-2.04-1.33-4.44-2.35-7.2h-9.34c-1.08,2.18-2.19,4.58-3.34,7.2-2.3-.02-3.71-.04-4.23-.04-.94,0-2.46.01-4.55.04ZM37.99,196.87h5.76c-1.43-4.36-2.22-6.76-2.35-7.21-.82,1.82-1.51,3.3-2.08,4.46l-1.33,2.74Z"/>
      <path class="cls-30" d="M60.65,209.08c-.16-2.63-.35-4.74-.56-6.33,1.39.62,2.62,1.05,3.71,1.29,1.08.24,2.04.36,2.85.36,1.08,0,1.94-.16,2.57-.47.64-.31.96-.78.96-1.4,0-.21-.03-.41-.09-.6-.06-.19-.18-.41-.35-.65-.17-.24-.42-.5-.74-.79l-3.5-3.04c-.82-.69-1.39-1.19-1.71-1.5-.66-.63-1.17-1.22-1.53-1.76-.37-.54-.63-1.1-.8-1.66-.17-.56-.25-1.16-.25-1.79,0-.75.13-1.49.4-2.22.27-.72.66-1.4,1.2-2.03.53-.63,1.24-1.17,2.12-1.63.88-.46,1.82-.77,2.82-.94,1-.17,2.03-.25,3.1-.25,2.09,0,4.37.24,6.83.72.04.85.08,1.64.13,2.35.05.71.17,1.96.35,3.74-1.14-.46-2.18-.78-3.12-.96-.94-.18-1.75-.27-2.43-.27-.96,0-1.77.18-2.4.54-.64.36-.96.8-.96,1.34,0,.25.05.49.15.72.1.24.28.51.56.83.27.31.63.66,1.08,1.04.45.38,1.14.94,2.1,1.68l1.34,1.06c.4.32.82.71,1.28,1.17.46.46.85.91,1.19,1.35s.59.85.77,1.22c.18.37.31.75.4,1.12.09.38.13.78.13,1.21,0,1.11-.27,2.17-.8,3.18-.53,1.01-1.29,1.84-2.26,2.49-.98.65-2.05,1.1-3.22,1.36s-2.4.39-3.7.39c-2,0-4.53-.29-7.59-.87Z"/>
      <path class="cls-30" d="M92.19,209.47c.31-2.92.53-5.3.67-7.14.26-3.36.46-6.71.59-10.03.13-3.32.2-6.04.2-8.16,1.68.02,3.17.04,4.47.04.88,0,2.14-.01,3.78-.04l-.45,6.72-.56,10.5-.07,2.58c2.13.04,3.51.06,4.16.06,3.25,0,5.72-.04,7.39-.13l-.41,5.6c-3.25-.02-6.35-.04-9.3-.04-3.98,0-7.47.01-10.46.04Z"/>
      <path class="cls-30" d="M115.62,209.47c.31-3.19.54-5.86.68-8.02.14-2.15.29-5.01.43-8.58.14-3.57.21-5.93.21-7.1l-.02-1.63c2.92.02,6.45.04,10.59.04,3.82,0,7.19-.01,10.11-.04l-.04.61c-.01.15-.04.68-.09,1.61l-.11,2.01c-.03.43-.04.87-.04,1.31-2.39-.1-4.39-.15-6.01-.15-1.78,0-2.98,0-3.61,0-.62,0-1.6.03-2.92.08l-.23,4.27c1.46.04,3.16.06,5.1.06.69,0,2.54-.04,5.53-.13-.12,1.58-.24,3.47-.35,5.66-2.14-.02-3.78-.04-4.93-.04-1.71,0-3.62.04-5.73.13l-.22,4.51h2.13c.63,0,1.93-.02,3.91-.06l3.84-.09c.57-.01,1.52-.06,2.86-.15-.15,1.83-.27,3.72-.37,5.68-3.02-.02-6.33-.04-9.93-.04l-8.16.02-2.63.02Z"/>
      <path class="cls-30" d="M139.11,209.47c1.45-1.83,3.21-4.13,5.28-6.9,2.07-2.77,3.68-4.97,4.82-6.61l-2.19-3.69c-.41-.67-1-1.6-1.76-2.8l-1.86-2.88c-.46-.72-.97-1.53-1.54-2.45,1.6.02,3.23.04,4.9.04,1.32,0,2.74-.01,4.25-.04.54,1.08,1.18,2.24,1.92,3.5.74,1.26,1.32,2.35,1.75,3.28.49-.85,1.17-1.91,2.02-3.18s1.6-2.46,2.25-3.59c1.31.02,2.74.04,4.29.04,1,0,2.42-.01,4.27-.04-.89,1.27-2.21,3.08-3.97,5.42-1.76,2.34-3.42,4.65-4.99,6.92,2,3.41,4.72,7.74,8.16,12.99-1.96-.02-3.42-.04-4.4-.04-1.63,0-3.25.01-4.84.04-.48-.99-1.16-2.24-2.03-3.76-.87-1.51-1.63-2.91-2.27-4.18-.48.87-1.27,2.08-2.38,3.66-1.1,1.57-2.07,3-2.91,4.29-1.81-.02-3.24-.04-4.29-.04-1.16,0-2.65.01-4.47.04Z"/>
      <path class="cls-30" d="M197.15,203.29c-.15.73-.33,1.74-.54,3.04-.21,1.3-.35,2.31-.43,3.02-2.65.4-5.01.59-7.09.59s-3.87-.25-5.59-.75c-1.73-.5-3.31-1.32-4.75-2.47-1.44-1.14-2.47-2.49-3.09-4.04-.62-1.55-.93-3.28-.93-5.2,0-2.24.42-4.25,1.25-6.04.84-1.79,2.04-3.28,3.6-4.47,1.57-1.19,3.28-2.05,5.15-2.56,1.87-.51,3.8-.77,5.79-.77,1.83,0,4.09.24,6.79.71l.04,1.56c.02.68.06,1.43.11,2.25l.13,2.12c-1.45-.35-2.62-.58-3.52-.71-.9-.12-1.73-.19-2.5-.19-1.67,0-3.17.33-4.51,1s-2.39,1.64-3.15,2.91c-.77,1.27-1.15,2.68-1.15,4.23,0,1.41.32,2.62.96,3.63.64,1.01,1.51,1.79,2.61,2.34,1.1.55,2.45.83,4.05.83.88,0,1.83-.07,2.87-.21,1.03-.14,2.33-.42,3.89-.83Z"/>
      <path class="cls-30" d="M211.51,190.04c1.53,0,3.01.24,4.42.71,1.42.47,2.61,1.15,3.59,2.03.98.88,1.7,1.92,2.16,3.1.46,1.18.7,2.45.7,3.81s-.21,2.58-.62,3.78c-.41,1.19-1.12,2.31-2.11,3.36-.99,1.05-2.25,1.83-3.78,2.35-1.53.52-3.15.78-4.85.78-1.57,0-3.08-.23-4.53-.69s-2.66-1.12-3.63-2c-.97-.88-1.7-1.93-2.19-3.15-.49-1.22-.73-2.51-.73-3.86s.24-2.63.71-3.86c.48-1.22,1.23-2.33,2.26-3.3,1.03-.98,2.31-1.73,3.83-2.25,1.52-.53,3.1-.79,4.75-.79ZM211.38,195.5c-.79,0-1.5.2-2.12.61-.62.41-1.09,1-1.4,1.79-.32.79-.47,1.64-.47,2.57,0,1.36.34,2.4,1.02,3.13.68.72,1.53,1.09,2.56,1.09.78,0,1.48-.21,2.1-.62.62-.42,1.08-1.03,1.4-1.84.31-.81.47-1.68.47-2.61,0-.77-.12-1.46-.37-2.08-.25-.62-.65-1.11-1.21-1.48-.56-.37-1.22-.56-1.98-.56Z"/>
      <path class="cls-30" d="M225.12,209.47l.57-8.24.19-4.73c.01-.85.02-1.73.02-2.62s-.01-2.02-.04-3.36c1.5.03,2.68.04,3.56.04,1.03,0,2.21-.01,3.54-.04l-.08,2.1c.48-.54.88-.95,1.19-1.21.31-.27.66-.51,1.06-.72.4-.22.81-.38,1.24-.48.43-.1.88-.16,1.35-.16.45,0,.94.06,1.49.19.01,1.35.04,2.46.09,3.34l.13,2.86c-.68-.2-1.32-.3-1.91-.3-.74,0-1.38.11-1.92.33-.54.22-1.01.54-1.43.98-.41.44-.75.99-.99,1.64-.25.66-.42,1.7-.52,3.12-.1,1.42-.15,3.05-.15,4.88,0,.64.02,1.44.07,2.39-1.2-.02-2.41-.04-3.62-.04s-2.49.01-3.86.04Z"/>
      <path class="cls-30" d="M240.91,218.15c.23-2.54.43-5.07.59-7.59.28-4.32.48-7.94.58-10.86.1-2.92.16-5.82.16-8.69,2.51-.38,4.48-.64,5.9-.77,1.42-.13,2.84-.19,4.27-.19,1.78,0,3.42.19,4.92.56,1.5.37,2.7,1.03,3.61,1.97.91.94,1.59,2.06,2.05,3.36.46,1.3.69,2.66.69,4.08,0,1.3-.19,2.56-.56,3.78-.37,1.22-.94,2.32-1.71,3.29-.77.98-1.65,1.7-2.64,2.17s-2.1.71-3.33.71c-.61,0-1.23-.06-1.88-.18-.65-.12-1.26-.29-1.84-.51s-1.07-.45-1.46-.68c-.39-.23-.87-.56-1.46-.99l-.21,5.18c-.09,2.38-.13,4.17-.13,5.38-1.44-.03-2.67-.04-3.7-.04-.89,0-2.18.01-3.86.04ZM249.46,195.74c-.1.56-.17,1.01-.21,1.36-.04.35-.08.83-.11,1.43-.04.6-.06,1.08-.06,1.44,0,1.01.16,1.87.47,2.55.32.69.75,1.22,1.32,1.6.56.38,1.17.57,1.81.57.68,0,1.3-.2,1.87-.58.57-.39,1.02-.97,1.36-1.75s.5-1.66.5-2.63c0-1.32-.35-2.39-1.05-3.19-.7-.8-1.72-1.21-3.05-1.21-.84,0-1.79.14-2.86.43Z"/>
    </g>
    <g>
      <path class="cls-45" d="M7.79,209.47c.12-1,.27-2.7.45-5.1.17-2.4.26-4.09.26-5.08l-8.5-15.14c1.87.02,3.41.04,4.62.04s2.55-.01,4.17-.04c.49,1.24,1.17,2.71,2.01,4.42.85,1.71,1.54,3.24,2.07,4.59,1.42-2.51,2.56-4.47,3.43-5.87.87-1.4,1.48-2.45,1.85-3.14,1.57.02,3.08.04,4.53.04.77,0,2.16-.01,4.18-.04l-8.15,12c-1.62,2.4-2.43,3.66-2.43,3.77l-.02.19v.19l-.02.19-.13,2.82c-.09,1.87-.15,3.93-.2,6.18-1.74-.02-3.09-.04-4.05-.04s-2.34.01-4.08.04Z"/>
      <path class="cls-44" d="M23.62,209.47l1.54-2.67,9.6-18.07,1.02-2.02c.3-.59.71-1.45,1.24-2.56,2.18.02,3.77.04,4.77.04,1.74,0,3.36-.01,4.84-.04l2.71,7.74,5.51,14.88,1.08,2.71c-2.14-.02-3.44-.04-3.9-.04-1.04,0-2.57.01-4.59.04-.54-2.04-1.33-4.44-2.35-7.2h-9.34c-1.08,2.18-2.19,4.58-3.34,7.2-2.3-.02-3.71-.04-4.23-.04-.94,0-2.46.01-4.55.04ZM37.99,196.87h5.76c-1.43-4.36-2.22-6.76-2.35-7.21-.82,1.82-1.51,3.3-2.08,4.46l-1.33,2.74Z"/>
      <path class="cls-33" d="M60.65,209.08c-.16-2.63-.35-4.74-.56-6.33,1.39.62,2.62,1.05,3.71,1.29,1.08.24,2.04.36,2.85.36,1.08,0,1.94-.16,2.57-.47.64-.31.96-.78.96-1.4,0-.21-.03-.41-.09-.6-.06-.19-.18-.41-.35-.65-.17-.24-.42-.5-.74-.79l-3.5-3.04c-.82-.69-1.39-1.19-1.71-1.5-.66-.63-1.17-1.22-1.53-1.76-.37-.54-.63-1.1-.8-1.66-.17-.56-.25-1.16-.25-1.79,0-.75.13-1.49.4-2.22.27-.72.66-1.4,1.2-2.03.53-.63,1.24-1.17,2.12-1.63.88-.46,1.82-.77,2.82-.94,1-.17,2.03-.25,3.1-.25,2.09,0,4.37.24,6.83.72.04.85.08,1.64.13,2.35.05.71.17,1.96.35,3.74-1.14-.46-2.18-.78-3.12-.96-.94-.18-1.75-.27-2.43-.27-.96,0-1.77.18-2.4.54-.64.36-.96.8-.96,1.34,0,.25.05.49.15.72.1.24.28.51.56.83.27.31.63.66,1.08,1.04.45.38,1.14.94,2.1,1.68l1.34,1.06c.4.32.82.71,1.28,1.17.46.46.85.91,1.19,1.35s.59.85.77,1.22c.18.37.31.75.4,1.12.09.38.13.78.13,1.21,0,1.11-.27,2.17-.8,3.18-.53,1.01-1.29,1.84-2.26,2.49-.98.65-2.05,1.1-3.22,1.36s-2.4.39-3.7.39c-2,0-4.53-.29-7.59-.87Z"/>
      <path class="cls-39" d="M92.19,209.47c.31-2.92.53-5.3.67-7.14.26-3.36.46-6.71.59-10.03.13-3.32.2-6.04.2-8.16,1.68.02,3.17.04,4.47.04.88,0,2.14-.01,3.78-.04l-.45,6.72-.56,10.5-.07,2.58c2.13.04,3.51.06,4.16.06,3.25,0,5.72-.04,7.39-.13l-.41,5.6c-3.25-.02-6.35-.04-9.3-.04-3.98,0-7.47.01-10.46.04Z"/>
      <path class="cls-29" d="M115.62,209.47c.31-3.19.54-5.86.68-8.02.14-2.15.29-5.01.43-8.58.14-3.57.21-5.93.21-7.1l-.02-1.63c2.92.02,6.45.04,10.59.04,3.82,0,7.19-.01,10.11-.04l-.04.61c-.01.15-.04.68-.09,1.61l-.11,2.01c-.03.43-.04.87-.04,1.31-2.39-.1-4.39-.15-6.01-.15-1.78,0-2.98,0-3.61,0-.62,0-1.6.03-2.92.08l-.23,4.27c1.46.04,3.16.06,5.1.06.69,0,2.54-.04,5.53-.13-.12,1.58-.24,3.47-.35,5.66-2.14-.02-3.78-.04-4.93-.04-1.71,0-3.62.04-5.73.13l-.22,4.51h2.13c.63,0,1.93-.02,3.91-.06l3.84-.09c.57-.01,1.52-.06,2.86-.15-.15,1.83-.27,3.72-.37,5.68-3.02-.02-6.33-.04-9.93-.04l-8.16.02-2.63.02Z"/>
      <path class="cls-34" d="M139.11,209.47c1.45-1.83,3.21-4.13,5.28-6.9,2.07-2.77,3.68-4.97,4.82-6.61l-2.19-3.69c-.41-.67-1-1.6-1.76-2.8l-1.86-2.88c-.46-.72-.97-1.53-1.54-2.45,1.6.02,3.23.04,4.9.04,1.32,0,2.74-.01,4.25-.04.54,1.08,1.18,2.24,1.92,3.5.74,1.26,1.32,2.35,1.75,3.28.49-.85,1.17-1.91,2.02-3.18s1.6-2.46,2.25-3.59c1.31.02,2.74.04,4.29.04,1,0,2.42-.01,4.27-.04-.89,1.27-2.21,3.08-3.97,5.42-1.76,2.34-3.42,4.65-4.99,6.92,2,3.41,4.72,7.74,8.16,12.99-1.96-.02-3.42-.04-4.4-.04-1.63,0-3.25.01-4.84.04-.48-.99-1.16-2.24-2.03-3.76-.87-1.51-1.63-2.91-2.27-4.18-.48.87-1.27,2.08-2.38,3.66-1.1,1.57-2.07,3-2.91,4.29-1.81-.02-3.24-.04-4.29-.04-1.16,0-2.65.01-4.47.04Z"/>
      <path class="cls-38" d="M197.15,203.29c-.15.73-.33,1.74-.54,3.04-.21,1.3-.35,2.31-.43,3.02-2.65.4-5.01.59-7.09.59s-3.87-.25-5.59-.75c-1.73-.5-3.31-1.32-4.75-2.47-1.44-1.14-2.47-2.49-3.09-4.04-.62-1.55-.93-3.28-.93-5.2,0-2.24.42-4.25,1.25-6.04.84-1.79,2.04-3.28,3.6-4.47,1.57-1.19,3.28-2.05,5.15-2.56,1.87-.51,3.8-.77,5.79-.77,1.83,0,4.09.24,6.79.71l.04,1.56c.02.68.06,1.43.11,2.25l.13,2.12c-1.45-.35-2.62-.58-3.52-.71-.9-.12-1.73-.19-2.5-.19-1.67,0-3.17.33-4.51,1s-2.39,1.64-3.15,2.91c-.77,1.27-1.15,2.68-1.15,4.23,0,1.41.32,2.62.96,3.63.64,1.01,1.51,1.79,2.61,2.34,1.1.55,2.45.83,4.05.83.88,0,1.83-.07,2.87-.21,1.03-.14,2.33-.42,3.89-.83Z"/>
      <path class="cls-42" d="M211.51,190.04c1.53,0,3.01.24,4.42.71,1.42.47,2.61,1.15,3.59,2.03.98.88,1.7,1.92,2.16,3.1.46,1.18.7,2.45.7,3.81s-.21,2.58-.62,3.78c-.41,1.19-1.12,2.31-2.11,3.36-.99,1.05-2.25,1.83-3.78,2.35-1.53.52-3.15.78-4.85.78-1.57,0-3.08-.23-4.53-.69s-2.66-1.12-3.63-2c-.97-.88-1.7-1.93-2.19-3.15-.49-1.22-.73-2.51-.73-3.86s.24-2.63.71-3.86c.48-1.22,1.23-2.33,2.26-3.3,1.03-.98,2.31-1.73,3.83-2.25,1.52-.53,3.1-.79,4.75-.79ZM211.38,195.5c-.79,0-1.5.2-2.12.61-.62.41-1.09,1-1.4,1.79-.32.79-.47,1.64-.47,2.57,0,1.36.34,2.4,1.02,3.13.68.72,1.53,1.09,2.56,1.09.78,0,1.48-.21,2.1-.62.62-.42,1.08-1.03,1.4-1.84.31-.81.47-1.68.47-2.61,0-.77-.12-1.46-.37-2.08-.25-.62-.65-1.11-1.21-1.48-.56-.37-1.22-.56-1.98-.56Z"/>
      <path class="cls-46" d="M225.12,209.47l.57-8.24.19-4.73c.01-.85.02-1.73.02-2.62s-.01-2.02-.04-3.36c1.5.03,2.68.04,3.56.04,1.03,0,2.21-.01,3.54-.04l-.08,2.1c.48-.54.88-.95,1.19-1.21.31-.27.66-.51,1.06-.72.4-.22.81-.38,1.24-.48.43-.1.88-.16,1.35-.16.45,0,.94.06,1.49.19.01,1.35.04,2.46.09,3.34l.13,2.86c-.68-.2-1.32-.3-1.91-.3-.74,0-1.38.11-1.92.33-.54.22-1.01.54-1.43.98-.41.44-.75.99-.99,1.64-.25.66-.42,1.7-.52,3.12-.1,1.42-.15,3.05-.15,4.88,0,.64.02,1.44.07,2.39-1.2-.02-2.41-.04-3.62-.04s-2.49.01-3.86.04Z"/>
      <path class="cls-28" d="M240.91,218.15c.23-2.54.43-5.07.59-7.59.28-4.32.48-7.94.58-10.86.1-2.92.16-5.82.16-8.69,2.51-.38,4.48-.64,5.9-.77,1.42-.13,2.84-.19,4.27-.19,1.78,0,3.42.19,4.92.56,1.5.37,2.7,1.03,3.61,1.97.91.94,1.59,2.06,2.05,3.36.46,1.3.69,2.66.69,4.08,0,1.3-.19,2.56-.56,3.78-.37,1.22-.94,2.32-1.71,3.29-.77.98-1.65,1.7-2.64,2.17s-2.1.71-3.33.71c-.61,0-1.23-.06-1.88-.18-.65-.12-1.26-.29-1.84-.51s-1.07-.45-1.46-.68c-.39-.23-.87-.56-1.46-.99l-.21,5.18c-.09,2.38-.13,4.17-.13,5.38-1.44-.03-2.67-.04-3.7-.04-.89,0-2.18.01-3.86.04ZM249.46,195.74c-.1.56-.17,1.01-.21,1.36-.04.35-.08.83-.11,1.43-.04.6-.06,1.08-.06,1.44,0,1.01.16,1.87.47,2.55.32.69.75,1.22,1.32,1.6.56.38,1.17.57,1.81.57.68,0,1.3-.2,1.87-.58.57-.39,1.02-.97,1.36-1.75s.5-1.66.5-2.63c0-1.32-.35-2.39-1.05-3.19-.7-.8-1.72-1.21-3.05-1.21-.84,0-1.79.14-2.86.43Z"/>
    </g>
    <g>
      <path class="cls-23" d="M7.79,209.47c.12-1,.27-2.7.45-5.1.17-2.4.26-4.09.26-5.08l-8.5-15.14c1.87.02,3.41.04,4.62.04s2.55-.01,4.17-.04c.49,1.24,1.17,2.71,2.01,4.42.85,1.71,1.54,3.24,2.07,4.59,1.42-2.51,2.56-4.47,3.43-5.87.87-1.4,1.48-2.45,1.85-3.14,1.57.02,3.08.04,4.53.04.77,0,2.16-.01,4.18-.04l-8.15,12c-1.62,2.4-2.43,3.66-2.43,3.77l-.02.19v.19l-.02.19-.13,2.82c-.09,1.87-.15,3.93-.2,6.18-1.74-.02-3.09-.04-4.05-.04s-2.34.01-4.08.04Z"/>
      <path class="cls-23" d="M23.62,209.47l1.54-2.67,9.6-18.07,1.02-2.02c.3-.59.71-1.45,1.24-2.56,2.18.02,3.77.04,4.77.04,1.74,0,3.36-.01,4.84-.04l2.71,7.74,5.51,14.88,1.08,2.71c-2.14-.02-3.44-.04-3.9-.04-1.04,0-2.57.01-4.59.04-.54-2.04-1.33-4.44-2.35-7.2h-9.34c-1.08,2.18-2.19,4.58-3.34,7.2-2.3-.02-3.71-.04-4.23-.04-.94,0-2.46.01-4.55.04ZM37.99,196.87h5.76c-1.43-4.36-2.22-6.76-2.35-7.21-.82,1.82-1.51,3.3-2.08,4.46l-1.33,2.74Z"/>
      <path class="cls-23" d="M60.65,209.08c-.16-2.63-.35-4.74-.56-6.33,1.39.62,2.62,1.05,3.71,1.29,1.08.24,2.04.36,2.85.36,1.08,0,1.94-.16,2.57-.47.64-.31.96-.78.96-1.4,0-.21-.03-.41-.09-.6-.06-.19-.18-.41-.35-.65-.17-.24-.42-.5-.74-.79l-3.5-3.04c-.82-.69-1.39-1.19-1.71-1.5-.66-.63-1.17-1.22-1.53-1.76-.37-.54-.63-1.1-.8-1.66-.17-.56-.25-1.16-.25-1.79,0-.75.13-1.49.4-2.22.27-.72.66-1.4,1.2-2.03.53-.63,1.24-1.17,2.12-1.63.88-.46,1.82-.77,2.82-.94,1-.17,2.03-.25,3.1-.25,2.09,0,4.37.24,6.83.72.04.85.08,1.64.13,2.35.05.71.17,1.96.35,3.74-1.14-.46-2.18-.78-3.12-.96-.94-.18-1.75-.27-2.43-.27-.96,0-1.77.18-2.4.54-.64.36-.96.8-.96,1.34,0,.25.05.49.15.72.1.24.28.51.56.83.27.31.63.66,1.08,1.04.45.38,1.14.94,2.1,1.68l1.34,1.06c.4.32.82.71,1.28,1.17.46.46.85.91,1.19,1.35s.59.85.77,1.22c.18.37.31.75.4,1.12.09.38.13.78.13,1.21,0,1.11-.27,2.17-.8,3.18-.53,1.01-1.29,1.84-2.26,2.49-.98.65-2.05,1.1-3.22,1.36s-2.4.39-3.7.39c-2,0-4.53-.29-7.59-.87Z"/>
      <path class="cls-23" d="M92.19,209.47c.31-2.92.53-5.3.67-7.14.26-3.36.46-6.71.59-10.03.13-3.32.2-6.04.2-8.16,1.68.02,3.17.04,4.47.04.88,0,2.14-.01,3.78-.04l-.45,6.72-.56,10.5-.07,2.58c2.13.04,3.51.06,4.16.06,3.25,0,5.72-.04,7.39-.13l-.41,5.6c-3.25-.02-6.35-.04-9.3-.04-3.98,0-7.47.01-10.46.04Z"/>
      <path class="cls-23" d="M115.62,209.47c.31-3.19.54-5.86.68-8.02.14-2.15.29-5.01.43-8.58.14-3.57.21-5.93.21-7.1l-.02-1.63c2.92.02,6.45.04,10.59.04,3.82,0,7.19-.01,10.11-.04l-.04.61c-.01.15-.04.68-.09,1.61l-.11,2.01c-.03.43-.04.87-.04,1.31-2.39-.1-4.39-.15-6.01-.15-1.78,0-2.98,0-3.61,0-.62,0-1.6.03-2.92.08l-.23,4.27c1.46.04,3.16.06,5.1.06.69,0,2.54-.04,5.53-.13-.12,1.58-.24,3.47-.35,5.66-2.14-.02-3.78-.04-4.93-.04-1.71,0-3.62.04-5.73.13l-.22,4.51h2.13c.63,0,1.93-.02,3.91-.06l3.84-.09c.57-.01,1.52-.06,2.86-.15-.15,1.83-.27,3.72-.37,5.68-3.02-.02-6.33-.04-9.93-.04l-8.16.02-2.63.02Z"/>
      <path class="cls-23" d="M139.11,209.47c1.45-1.83,3.21-4.13,5.28-6.9,2.07-2.77,3.68-4.97,4.82-6.61l-2.19-3.69c-.41-.67-1-1.6-1.76-2.8l-1.86-2.88c-.46-.72-.97-1.53-1.54-2.45,1.6.02,3.23.04,4.9.04,1.32,0,2.74-.01,4.25-.04.54,1.08,1.18,2.24,1.92,3.5.74,1.26,1.32,2.35,1.75,3.28.49-.85,1.17-1.91,2.02-3.18s1.6-2.46,2.25-3.59c1.31.02,2.74.04,4.29.04,1,0,2.42-.01,4.27-.04-.89,1.27-2.21,3.08-3.97,5.42-1.76,2.34-3.42,4.65-4.99,6.92,2,3.41,4.72,7.74,8.16,12.99-1.96-.02-3.42-.04-4.4-.04-1.63,0-3.25.01-4.84.04-.48-.99-1.16-2.24-2.03-3.76-.87-1.51-1.63-2.91-2.27-4.18-.48.87-1.27,2.08-2.38,3.66-1.1,1.57-2.07,3-2.91,4.29-1.81-.02-3.24-.04-4.29-.04-1.16,0-2.65.01-4.47.04Z"/>
      <path class="cls-23" d="M197.15,203.29c-.15.73-.33,1.74-.54,3.04-.21,1.3-.35,2.31-.43,3.02-2.65.4-5.01.59-7.09.59s-3.87-.25-5.59-.75c-1.73-.5-3.31-1.32-4.75-2.47-1.44-1.14-2.47-2.49-3.09-4.04-.62-1.55-.93-3.28-.93-5.2,0-2.24.42-4.25,1.25-6.04.84-1.79,2.04-3.28,3.6-4.47,1.57-1.19,3.28-2.05,5.15-2.56,1.87-.51,3.8-.77,5.79-.77,1.83,0,4.09.24,6.79.71l.04,1.56c.02.68.06,1.43.11,2.25l.13,2.12c-1.45-.35-2.62-.58-3.52-.71-.9-.12-1.73-.19-2.5-.19-1.67,0-3.17.33-4.51,1s-2.39,1.64-3.15,2.91c-.77,1.27-1.15,2.68-1.15,4.23,0,1.41.32,2.62.96,3.63.64,1.01,1.51,1.79,2.61,2.34,1.1.55,2.45.83,4.05.83.88,0,1.83-.07,2.87-.21,1.03-.14,2.33-.42,3.89-.83Z"/>
      <path class="cls-23" d="M211.51,190.04c1.53,0,3.01.24,4.42.71,1.42.47,2.61,1.15,3.59,2.03.98.88,1.7,1.92,2.16,3.1.46,1.18.7,2.45.7,3.81s-.21,2.58-.62,3.78c-.41,1.19-1.12,2.31-2.11,3.36-.99,1.05-2.25,1.83-3.78,2.35-1.53.52-3.15.78-4.85.78-1.57,0-3.08-.23-4.53-.69s-2.66-1.12-3.63-2c-.97-.88-1.7-1.93-2.19-3.15-.49-1.22-.73-2.51-.73-3.86s.24-2.63.71-3.86c.48-1.22,1.23-2.33,2.26-3.3,1.03-.98,2.31-1.73,3.83-2.25,1.52-.53,3.1-.79,4.75-.79ZM211.38,195.5c-.79,0-1.5.2-2.12.61-.62.41-1.09,1-1.4,1.79-.32.79-.47,1.64-.47,2.57,0,1.36.34,2.4,1.02,3.13.68.72,1.53,1.09,2.56,1.09.78,0,1.48-.21,2.1-.62.62-.42,1.08-1.03,1.4-1.84.31-.81.47-1.68.47-2.61,0-.77-.12-1.46-.37-2.08-.25-.62-.65-1.11-1.21-1.48-.56-.37-1.22-.56-1.98-.56Z"/>
      <path class="cls-23" d="M225.12,209.47l.57-8.24.19-4.73c.01-.85.02-1.73.02-2.62s-.01-2.02-.04-3.36c1.5.03,2.68.04,3.56.04,1.03,0,2.21-.01,3.54-.04l-.08,2.1c.48-.54.88-.95,1.19-1.21.31-.27.66-.51,1.06-.72.4-.22.81-.38,1.24-.48.43-.1.88-.16,1.35-.16.45,0,.94.06,1.49.19.01,1.35.04,2.46.09,3.34l.13,2.86c-.68-.2-1.32-.3-1.91-.3-.74,0-1.38.11-1.92.33-.54.22-1.01.54-1.43.98-.41.44-.75.99-.99,1.64-.25.66-.42,1.7-.52,3.12-.1,1.42-.15,3.05-.15,4.88,0,.64.02,1.44.07,2.39-1.2-.02-2.41-.04-3.62-.04s-2.49.01-3.86.04Z"/>
      <path class="cls-23" d="M240.91,218.15c.23-2.54.43-5.07.59-7.59.28-4.32.48-7.94.58-10.86.1-2.92.16-5.82.16-8.69,2.51-.38,4.48-.64,5.9-.77,1.42-.13,2.84-.19,4.27-.19,1.78,0,3.42.19,4.92.56,1.5.37,2.7,1.03,3.61,1.97.91.94,1.59,2.06,2.05,3.36.46,1.3.69,2.66.69,4.08,0,1.3-.19,2.56-.56,3.78-.37,1.22-.94,2.32-1.71,3.29-.77.98-1.65,1.7-2.64,2.17s-2.1.71-3.33.71c-.61,0-1.23-.06-1.88-.18-.65-.12-1.26-.29-1.84-.51s-1.07-.45-1.46-.68c-.39-.23-.87-.56-1.46-.99l-.21,5.18c-.09,2.38-.13,4.17-.13,5.38-1.44-.03-2.67-.04-3.7-.04-.89,0-2.18.01-3.86.04ZM249.46,195.74c-.1.56-.17,1.01-.21,1.36-.04.35-.08.83-.11,1.43-.04.6-.06,1.08-.06,1.44,0,1.01.16,1.87.47,2.55.32.69.75,1.22,1.32,1.6.56.38,1.17.57,1.81.57.68,0,1.3-.2,1.87-.58.57-.39,1.02-.97,1.36-1.75s.5-1.66.5-2.63c0-1.32-.35-2.39-1.05-3.19-.7-.8-1.72-1.21-3.05-1.21-.84,0-1.79.14-2.86.43Z"/>
    </g>
  </g>
  <g>
    <path class="cls-27" d="M55.98,237.5c-.07-1.53-.16-3.02-.27-4.48.88.38,1.6.64,2.14.78s1.05.2,1.52.2c.52,0,.99-.11,1.41-.32.31-.17.56-.39.74-.66.24-.38.41-.81.49-1.31.15-.9.26-2.47.34-4.71s.12-4.18.12-5.81v-1.57c1.25.02,2.08.03,2.49.03.52,0,1.4,0,2.65-.03l-.35,5.93c-.09,1.75-.15,3.62-.19,5.59-.03,1.52-.1,2.56-.2,3.13-.09.51-.23.94-.4,1.29-.16.33-.35.63-.59.89-.29.31-.64.59-1.04.82-.55.32-1.13.56-1.75.72-.68.18-1.41.27-2.18.27-1.43,0-3.07-.25-4.93-.74Z"/>
    <path class="cls-13" d="M88.5,219.61c1.22.02,2.08.03,2.58.03.62,0,1.46,0,2.49-.03l-.35,5.7c-.07,1.07-.12,2.08-.16,3.02-.04.94-.05,1.59-.05,1.95,0,.68.04,1.25.13,1.7.09.46.24.84.47,1.16.23.32.54.56.94.72s.82.24,1.26.24c.37,0,.73-.06,1.05-.18.26-.1.49-.23.69-.4.18-.16.34-.35.47-.56.16-.25.31-.57.43-.96.12-.36.22-.83.28-1.41.07-.59.16-1.92.28-3.99.1-1.77.18-3.39.23-4.86.05-1.43.09-2.14.13-2.14h5.17l-.57,9.52c0,.18-.01.33-.01.44-.03,1.86-.13,3.17-.3,3.94-.17.76-.45,1.43-.84,1.99s-.96,1.07-1.71,1.52-1.6.77-2.56.96c-.95.19-1.92.28-2.9.28-.88,0-1.72-.07-2.53-.21-.75-.14-1.43-.35-2.03-.62s-1.13-.59-1.57-.96c-.41-.34-.72-.69-.94-1.04s-.39-.78-.52-1.27c-.14-.55-.21-1.15-.21-1.78,0-.21,0-.54.02-.97s.05-1.06.11-1.87l.15-2.15c.04-.56.08-1.39.13-2.48l.21-5.3Z"/>
    <path class="cls-4" d="M130.43,237.92c.15-1.57.27-2.99.35-4.25s.16-2.72.22-4.39.11-3.42.14-5.26.05-3.32.05-4.41c.98.03,1.77.04,2.37.04s1.39-.02,2.29-.06c.9-.04,1.77-.06,2.62-.06,1,0,1.89.04,2.67.13.59.06,1.12.19,1.6.39s.88.44,1.21.72.6.6.82.95.39.76.51,1.23.18.97.18,1.51c0,.6-.07,1.16-.2,1.68s-.34,1.01-.63,1.48-.64.86-1.08,1.19-1.04.68-1.82,1.03l.61,1.7c.17.47.36.96.55,1.45l1.57,3.93c.07.17.2.51.38,1.01-1.29-.02-2.15-.03-2.6-.03-.56,0-1.48,0-2.76.03-.12-.47-.35-1.33-.68-2.59-.13-.53-.25-.93-.34-1.22-.19-.63-.47-1.52-.83-2.67l-1.21-3.8c.42.09.84.13,1.24.13.57,0,1.09-.1,1.55-.3s.82-.5,1.05-.91.36-.85.36-1.3c0-.38-.09-.72-.27-1.01s-.46-.51-.85-.65-.98-.21-1.79-.21c-.27,0-.56,0-.85.02s-.63.02-1.03.03c-.1,1.83-.19,4.07-.27,6.71s-.13,5.23-.15,7.77c-1.31-.02-2.16-.03-2.55-.03-.45,0-1.27,0-2.45.03Z"/>
    <path class="cls-17" d="M171.32,237.92c.45-7.18.68-12.71.68-16.58v-1.73c1.36.02,2.27.03,2.73.03.21,0,1.05,0,2.52-.03-.14,2.01-.25,3.92-.34,5.71-.11,2.5-.19,4.84-.24,7.02-.05,2.18-.07,4.04-.07,5.57l-2.4-.03c-.47,0-1.43,0-2.88.03Z"/>
    <path class="cls-20" d="M197.33,237.64c-.1-1.9-.22-3.43-.35-4.57.88.45,1.66.76,2.34.93.69.17,1.29.26,1.8.26.68,0,1.22-.11,1.63-.34s.6-.57.6-1.01c0-.15-.02-.3-.06-.44s-.11-.3-.22-.47c-.11-.17-.27-.36-.47-.57l-2.21-2.2c-.52-.5-.88-.86-1.08-1.09-.42-.46-.74-.88-.97-1.27-.23-.39-.4-.79-.5-1.2s-.16-.84-.16-1.29c0-.55.08-1.08.25-1.6s.42-1.01.76-1.47.78-.85,1.34-1.18,1.15-.56,1.78-.68,1.29-.18,1.96-.18c1.32,0,2.76.17,4.31.52.02.62.05,1.18.08,1.7s.11,1.42.22,2.7c-.72-.33-1.38-.56-1.97-.69s-1.11-.19-1.54-.19c-.61,0-1.12.13-1.52.39s-.6.58-.6.97c0,.18.03.35.09.52s.18.37.35.6.4.48.68.75.72.68,1.32,1.21l.84.76c.25.23.52.51.81.85.29.33.54.66.75.98.21.32.37.62.49.89s.2.54.25.81.08.57.08.88c0,.8-.17,1.57-.5,2.3s-.81,1.33-1.43,1.8-1.29.8-2.03.99-1.52.28-2.34.28c-1.27,0-2.86-.21-4.79-.63Z"/>
  </g>
</svg>